#define parametres_width 17
#define parametres_height 17
static unsigned char parametres_bits[] = {
   0x00, 0x00, 0x00, 0x80, 0x03, 0x00, 0x80, 0x03, 0x00, 0xb0, 0x1b, 0x00,
   0xf8, 0x3f, 0x00, 0x78, 0x3c, 0x00, 0x30, 0x18, 0x00, 0x1e, 0xf0, 0x00,
   0x1e, 0xf0, 0x00, 0x1e, 0xf0, 0x00, 0x30, 0x18, 0x00, 0x78, 0x3c, 0x00,
   0xf8, 0x3f, 0x00, 0xb0, 0x1b, 0x00, 0x80, 0x03, 0x00, 0x80, 0x03, 0x00,
   0x00, 0x00, 0x00 };
